<?xml version="1.0" encoding="utf-8"?>
<!-- Generator: Adobe Illustrator 22.0.0, SVG Export Plug-In . SVG Version: 6.00 Build 0)  -->
<svg version="1.1" id="Layer_1" xmlns="http://www.w3.org/2000/svg" xmlns:xlink="http://www.w3.org/1999/xlink" x="0px" y="0px"
	 viewBox="0 0 113 22" style="enable-background:new 0 0 113 22;" xml:space="preserve">
<style type="text/css">
	.st0{fill:#00134D;}
	.st1{fill:#00AD57;}
	.st2{fill:#009CCC;}
</style>
<g>
	<g>
		<g>
			<path class="st0" d="M38.2,3.7h-7.7l-0.2,5.2h2.6C37,8.8,39,11.2,39,14c0,3.6-2.7,5.6-6,5.6c-2.5,0-4.4-0.9-5.9-2.7l1.3-1.2
				c1.1,1.4,2.9,2.1,4.6,2.1c2.6,0,4-1.6,4-3.6c0-1.9-1.3-3.5-4.7-3.5h-3.8l0.2-8.8h9.5V3.7z"/>
		</g>
	</g>
	<g>
		<g>
			<path class="st0" d="M62.5,4.5L61,6c-1.2-1.5-3.1-2.4-5.3-2.4c-3.9,0-6.9,2.8-6.9,7s3,7,6.8,7c3.7,0,6-2.2,6.3-5.8h-5.4V10h7.6
				c0,0.2,0,0.3,0,0.5c0,5.1-3.2,9-8.5,9c-4.6,0-8.9-3.3-8.9-9c0-5.2,3.9-9,9-9C58.5,1.6,60.9,2.7,62.5,4.5z"/>
		</g>
	</g>
	<g>
		<g>
			<path class="st0" d="M112.4,19.3h-1.8l-10.8-14v14h-2V1.9h1.8l10.8,14v-14h2V19.3z"/>
		</g>
	</g>
	<rect x="-2.5" y="9.9" transform="matrix(0.7071 -0.7071 0.7071 0.7071 -4.7989 9.9144)" class="st1" width="24.2" height="1.8"/>
	<rect x="8.7" y="-1.4" transform="matrix(0.7071 -0.7071 0.7071 0.7071 -4.7989 9.9144)" class="st1" width="1.8" height="24.2"/>
	<path class="st2" d="M80.8,20.2c-5.2,0-9.5-4.2-9.5-9.5s4.2-9.5,9.5-9.5c5.2,0,9.5,4.2,9.5,9.5S86,20.2,80.8,20.2z M80.8,3.1
		c-4.2,0-7.7,3.4-7.7,7.7s3.4,7.7,7.7,7.7c4.2,0,7.7-3.4,7.7-7.7S85,3.1,80.8,3.1z"/>
</g>
</svg>
