<?xml version="1.0" encoding="utf-8"?>
<!-- Generator: Adobe Illustrator 19.0.0, SVG Export Plug-In . SVG Version: 6.00 Build 0)  -->
<svg version="1.1" id="Layer_1" xmlns="http://www.w3.org/2000/svg" xmlns:xlink="http://www.w3.org/1999/xlink" x="0px" y="0px"
	 viewBox="0 0 1525.5 1016.4" style="enable-background:new 0 0 1525.5 1016.4;" xml:space="preserve">
<style type="text/css">
	.st0{fill:none;stroke:#EAEAEA;stroke-width:16;stroke-miterlimit:10;}
	.st1{fill:none;stroke:#EAEAEA;stroke-width:6;stroke-miterlimit:10;}
	.st2{fill:none;stroke:#EAEAEA;stroke-width:14;stroke-miterlimit:10;}
	.st3{fill:none;stroke:#EAEAEA;stroke-width:20;stroke-miterlimit:10;}
	.st4{fill:none;stroke:#EAEAEA;stroke-width:10;stroke-miterlimit:10;}
	.st5{fill:#EAEAEA;}
	.st6{fill:#EAEAEA;stroke:#EAEAEA;stroke-width:8;stroke-miterlimit:10;}
	.st7{fill:none;stroke:#EAEAEA;stroke-width:5;stroke-miterlimit:10;}
	.st8{fill:none;stroke:#EAEAEA;stroke-width:5;stroke-miterlimit:10;stroke-dasharray:8.3172,8.3172;}
	.st9{fill:none;stroke:#EAEAEA;stroke-width:5;stroke-miterlimit:10;stroke-dasharray:8;}
	.st10{fill:none;stroke:#EAEAEA;stroke-width:6;stroke-miterlimit:10;stroke-dasharray:8;}
	.st11{fill:#EAEAEA;stroke:#EAEAEA;stroke-width:5;stroke-miterlimit:10;}
	.st12{fill:none;stroke:#EAEAEA;stroke-width:8;stroke-miterlimit:10;stroke-dasharray:8;}
	.st13{fill:none;stroke:#EAEAEA;stroke-width:4;stroke-miterlimit:10;}
	.st14{fill:none;stroke:#EAEAEA;stroke-width:4;stroke-miterlimit:10;stroke-dasharray:4;}
	.st15{fill:none;stroke:#EAEAEA;stroke-width:6;stroke-miterlimit:10;stroke-dasharray:6;}
	.st16{fill:#EAEAEA;stroke:#EAEAEA;stroke-width:4;stroke-miterlimit:10;}
	.st17{fill:none;stroke:#EAEAEA;stroke-width:4;stroke-miterlimit:10;stroke-dasharray:6;}
	.st18{fill:none;stroke:#EAEAEA;stroke-width:12;stroke-miterlimit:10;}
	.st19{fill:none;stroke:#EAEAEA;stroke-width:8;stroke-miterlimit:10;stroke-dasharray:6;}
	.st20{fill:none;stroke:#EAEAEA;stroke-width:8;stroke-miterlimit:10;}
	.st21{fill:#EAEAEA;stroke:#EAEAEA;stroke-width:6;stroke-miterlimit:10;}
</style>
<circle id="XMLID_362_" class="st0" cx="204.4" cy="608.6" r="55.3"/>
<circle id="XMLID_582_" class="st1" cx="343.4" cy="152.2" r="80.8"/>
<circle id="XMLID_583_" class="st2" cx="629.6" cy="370.5" r="15.6"/>
<circle id="XMLID_584_" class="st1" cx="1338.3" cy="237.4" r="15.6"/>
<circle id="XMLID_585_" class="st0" cx="1171.1" cy="305.4" r="35.4"/>
<circle id="XMLID_586_" class="st3" cx="1020.9" cy="106.9" r="75.1"/>
<circle id="XMLID_587_" class="st4" cx="1164" cy="406" r="14.2"/>
<circle id="XMLID_707_" class="st2" cx="105.2" cy="432.8" r="83.6"/>
<circle id="XMLID_709_" class="st2" cx="220" cy="723.4" r="17"/>
<circle id="XMLID_711_" class="st2" cx="523.3" cy="802.8" r="25.5"/>
<circle id="XMLID_713_" class="st1" cx="377.3" cy="832.5" r="15.6"/>
<circle id="XMLID_714_" class="st1" cx="517.6" cy="916.2" r="14.2"/>
<circle id="XMLID_716_" class="st1" cx="439.6" cy="835.4" r="12.8"/>
<circle id="XMLID_718_" class="st4" cx="452.4" cy="984.2" r="14.2"/>
<circle id="XMLID_720_" class="st5" cx="486.4" cy="859.5" r="11.3"/>
<circle id="XMLID_722_" class="st1" cx="351.8" cy="787.2" r="12.8"/>
<circle id="XMLID_724_" class="st5" cx="402.8" cy="722" r="12.8"/>
<circle id="XMLID_726_" class="st4" cx="1093.1" cy="459.9" r="14.2"/>
<circle id="XMLID_728_" class="st1" cx="1023.7" cy="362.1" r="9.9"/>
<circle id="XMLID_730_" class="st2" cx="913.1" cy="384.7" r="15.6"/>
<circle id="XMLID_732_" class="st1" cx="1285.9" cy="377.7" r="11.3"/>
<circle id="XMLID_734_" class="st0" cx="1427.6" cy="556.3" r="68"/>
<circle id="XMLID_736_" class="st1" cx="1294.3" cy="499.6" r="11.3"/>
<circle id="XMLID_738_" class="st1" cx="1213.6" cy="421.6" r="12.8"/>
<circle id="XMLID_740_" class="st1" cx="1212.1" cy="465.5" r="11.3"/>
<circle id="XMLID_742_" class="st1" cx="1203.6" cy="372" r="11.3"/>
<circle id="XMLID_743_" class="st1" cx="1271.7" cy="326.7" r="11.3"/>
<circle id="XMLID_744_" class="st2" cx="971.2" cy="278.4" r="25.5"/>
<circle id="XMLID_745_" class="st1" cx="1093.1" cy="374.8" r="11.3"/>
<circle id="XMLID_746_" class="st4" cx="821" cy="394.6" r="11.3"/>
<circle id="XMLID_747_" class="st4" cx="720.3" cy="367.7" r="9.9"/>
<circle id="XMLID_748_" class="st1" cx="717.5" cy="330.8" r="7.1"/>
<circle id="XMLID_749_" class="st2" cx="680.7" cy="350.7" r="7.1"/>
<circle id="XMLID_750_" class="st1" cx="659.4" cy="405.9" r="8.5"/>
<circle id="XMLID_751_" class="st1" cx="643.8" cy="452.7" r="9.9"/>
<circle id="XMLID_752_" class="st1" cx="616.9" cy="474" r="8.5"/>
<circle id="XMLID_753_" class="st1" cx="581.4" cy="373.3" r="7.1"/>
<circle id="XMLID_754_" class="st4" cx="641" cy="277" r="12.8"/>
<circle id="XMLID_755_" class="st1" cx="686.3" cy="291.1" r="9.9"/>
<circle id="XMLID_756_" class="st4" cx="717.5" cy="206.1" r="12.8"/>
<circle id="XMLID_757_" class="st4" cx="497.8" cy="286.9" r="14.2"/>
<circle id="XMLID_758_" class="st4" cx="791.2" cy="333.7" r="12.8"/>
<circle id="XMLID_759_" class="st1" cx="760" cy="308.2" r="9.9"/>
<circle id="XMLID_760_" class="st6" cx="730.3" cy="264.2" r="5.7"/>
<circle id="XMLID_761_" class="st6" cx="730.3" cy="284.1" r="5.7"/>
<circle id="XMLID_762_" class="st6" cx="733.1" cy="306.7" r="5.7"/>
<circle id="XMLID_763_" class="st1" cx="717.5" cy="413" r="7.1"/>
<circle id="XMLID_764_" class="st2" cx="696.2" cy="513.7" r="14.2"/>
<circle id="XMLID_765_" class="st1" cx="765.7" cy="495.2" r="9.9"/>
<circle id="XMLID_766_" class="st1" cx="826.6" cy="485.3" r="8.5"/>
<circle id="XMLID_767_" class="st2" cx="846.5" cy="539.2" r="14.2"/>
<circle id="XMLID_768_" class="st2" cx="796.9" cy="557.6" r="12.8"/>
<circle id="XMLID_769_" class="st1" cx="738.7" cy="556.2" r="8.5"/>
<circle id="XMLID_770_" class="st2" cx="642.4" cy="570.3" r="11.3"/>
<circle id="XMLID_771_" class="st6" cx="641" cy="506.6" r="4.3"/>
<circle id="XMLID_772_" class="st1" cx="686.3" cy="574.6" r="7.1"/>
<circle id="XMLID_773_" class="st1" cx="846.4" cy="627.1" r="8.5"/>
<circle id="XMLID_774_" class="st1" cx="911.6" cy="621.4" r="8.5"/>
<circle id="XMLID_775_" class="st4" cx="890.4" cy="767.4" r="9.9"/>
<circle id="XMLID_776_" class="st6" cx="880.5" cy="714.9" r="5.7"/>
<circle id="XMLID_777_" class="st6" cx="843.6" cy="723.4" r="5.7"/>
<circle id="XMLID_778_" class="st2" cx="830.9" cy="679.5" r="12.8"/>
<circle id="XMLID_779_" class="st4" cx="930.1" cy="673.8" r="9.9"/>
<circle id="XMLID_780_" class="st2" cx="906" cy="547.7" r="11.3"/>
<circle id="XMLID_781_" class="st1" cx="944.3" cy="461.3" r="9.9"/>
<circle id="XMLID_782_" class="st1" cx="881.9" cy="461.2" r="7.1"/>
<circle id="XMLID_783_" class="st1" cx="928.7" cy="499.5" r="8.5"/>
<circle id="XMLID_784_" class="st1" cx="1139.9" cy="231.7" r="18.4"/>
<circle id="XMLID_785_" class="st1" cx="952.8" cy="415.9" r="9.9"/>
<circle id="XMLID_786_" class="st1" cx="1006.6" cy="407.4" r="9.9"/>
<circle id="XMLID_787_" class="st6" cx="982.5" cy="369.1" r="5.7"/>
<circle id="XMLID_788_" class="st6" cx="959.9" cy="329.4" r="2.8"/>
<circle id="XMLID_789_" class="st6" cx="945.7" cy="355" r="2.8"/>
<circle id="XMLID_790_" class="st6" cx="877.7" cy="414.5" r="2.8"/>
<circle id="XMLID_791_" class="st6" cx="852.1" cy="417.3" r="2.8"/>
<circle id="XMLID_792_" class="st6" cx="761.4" cy="371.9" r="2.8"/>
<circle id="XMLID_793_" class="st6" cx="767.1" cy="414.5" r="2.8"/>
<circle id="XMLID_794_" class="st6" cx="669.3" cy="319.5" r="1.4"/>
<g id="XMLID_795_">
	<g id="XMLID_11_">
		<line id="XMLID_14_" class="st7" x1="486.4" y1="862.3" x2="488.5" y2="865.7"/>
		<line id="XMLID_13_" class="st8" x1="492.8" y1="872.9" x2="507.7" y2="897.8"/>
		<line id="XMLID_12_" class="st7" x1="509.9" y1="901.4" x2="511.9" y2="904.8"/>
	</g>
</g>
<line id="XMLID_796_" class="st9" x1="486.4" y1="862.3" x2="449.6" y2="839.6"/>
<line id="XMLID_797_" class="st7" x1="426.9" y1="836.8" x2="392.9" y2="833.9"/>
<line id="XMLID_798_" class="st9" x1="370.2" y1="819.8" x2="358.9" y2="799.9"/>
<line id="XMLID_799_" class="st4" x1="452.4" y1="831.1" x2="500.6" y2="811.3"/>
<line id="XMLID_800_" class="st7" x1="486.4" y1="859.5" x2="511.9" y2="825.4"/>
<line id="XMLID_801_" class="st7" x1="463.7" y1="975.7" x2="506.3" y2="927.5"/>
<line id="XMLID_802_" class="st10" x1="506.3" y1="788.6" x2="404.2" y2="723.4"/>
<circle id="XMLID_803_" class="st11" cx="319.2" cy="746.1" r="8.5"/>
<line id="XMLID_804_" class="st7" x1="319.2" y1="746.1" x2="401.4" y2="723.4"/>
<line id="XMLID_810_" class="st9" x1="358.9" y1="777.2" x2="401.4" y2="726.2"/>
<line id="XMLID_811_" class="st9" x1="438.2" y1="848.1" x2="449.6" y2="970"/>
<line id="XMLID_812_" class="st9" x1="319.2" y1="746.1" x2="237" y2="729"/>
<line id="XMLID_813_" class="st4" x1="217.1" y1="706.4" x2="211.5" y2="663.8"/>
<line id="XMLID_814_" class="st2" x1="183.2" y1="558.9" x2="152" y2="505.1"/>
<line id="XMLID_815_" class="st12" x1="166.2" y1="369" x2="293.7" y2="216"/>
<line id="XMLID_816_" class="st13" x1="254" y1="584.5" x2="616.9" y2="380.4"/>
<line id="XMLID_817_" class="st14" x1="614" y1="371.9" x2="588.5" y2="371.9"/>
<line id="XMLID_818_" class="st1" x1="639.6" y1="383.3" x2="653.7" y2="400.3"/>
<line id="XMLID_819_" class="st1" x1="645.2" y1="366.3" x2="679.2" y2="352.1"/>
<line id="XMLID_820_" class="st15" x1="656.6" y1="414.4" x2="648" y2="442.8"/>
<line id="XMLID_821_" class="st1" x1="636.7" y1="459.8" x2="625.4" y2="468.3"/>
<circle id="XMLID_822_" class="st16" cx="680.7" cy="393.2" r="4.3"/>
<line id="XMLID_823_" class="st1" x1="682.1" y1="394.6" x2="710.4" y2="408.8"/>
<line id="XMLID_824_" class="st13" x1="667.9" y1="400.3" x2="679.2" y2="394.6"/>
<line id="XMLID_825_" class="st15" x1="679.2" y1="391.8" x2="682.1" y2="352.1"/>
<line id="XMLID_826_" class="st17" x1="679.2" y1="346.4" x2="670.7" y2="320.9"/>
<line id="XMLID_827_" class="st17" x1="713.3" y1="363.4" x2="682.1" y2="352.1"/>
<line id="XMLID_828_" class="st13" x1="730.3" y1="369.1" x2="761.4" y2="371.9"/>
<line id="XMLID_829_" class="st13" x1="761.4" y1="371.9" x2="767.1" y2="414.5"/>
<line id="XMLID_830_" class="st17" x1="809.6" y1="397.5" x2="767.1" y2="414.5"/>
<line id="XMLID_831_" class="st17" x1="761.4" y1="371.9" x2="784.1" y2="343.6"/>
<line id="XMLID_832_" class="st17" x1="781.3" y1="326.6" x2="767.1" y2="315.2"/>
<line id="XMLID_833_" class="st17" x1="718.9" y1="337.9" x2="718.9" y2="357.8"/>
<line id="XMLID_834_" class="st17" x1="676.4" y1="289.7" x2="650.9" y2="281.2"/>
<line id="XMLID_835_" class="st13" x1="645.2" y1="267" x2="710.4" y2="213.2"/>
<line id="XMLID_836_" class="st1" x1="718.9" y1="218.9" x2="730.3" y2="264.2"/>
<line id="XMLID_837_" class="st13" x1="730.3" y1="267.1" x2="730.3" y2="284.1"/>
<line id="XMLID_838_" class="st13" x1="730.3" y1="286.9" x2="733.1" y2="306.7"/>
<line id="XMLID_839_" class="st17" x1="690.6" y1="281.2" x2="713.3" y2="218.9"/>
<line id="XMLID_840_" class="st17" x1="509.2" y1="295.4" x2="614" y2="363.4"/>
<line id="XMLID_841_" class="st17" x1="801.1" y1="323.8" x2="971.2" y2="165"/>
<line id="XMLID_842_" class="st18" x1="976.9" y1="252.9" x2="999.6" y2="179.2"/>
<line id="XMLID_843_" class="st4" x1="730.3" y1="204.7" x2="951.4" y2="136.7"/>
<line id="XMLID_844_" class="st1" x1="721.8" y1="326.6" x2="733.1" y2="309.6"/>
<line id="XMLID_845_" class="st13" x1="679.2" y1="352.1" x2="710.4" y2="335.1"/>
<line id="XMLID_846_" class="st13" x1="829.5" y1="403.1" x2="852.1" y2="417.3"/>
<line id="XMLID_847_" class="st17" x1="852.1" y1="417.3" x2="832.3" y2="476.8"/>
<line id="XMLID_848_" class="st13" x1="852.1" y1="417.3" x2="877.7" y2="414.5"/>
<line id="XMLID_849_" class="st17" x1="877.7" y1="414.5" x2="903.2" y2="394.6"/>
<line id="XMLID_850_" class="st17" x1="877.7" y1="414.5" x2="880.5" y2="454.2"/>
<line id="XMLID_851_" class="st17" x1="889" y1="459.8" x2="934.3" y2="459.8"/>
<line id="XMLID_852_" class="st13" x1="940" y1="471.2" x2="931.5" y2="491"/>
<line id="XMLID_853_" class="st13" x1="886.2" y1="468.3" x2="920.2" y2="493.8"/>
<line id="XMLID_854_" class="st13" x1="925.9" y1="374.8" x2="945.7" y2="355"/>
<line id="XMLID_855_" class="st17" x1="945.7" y1="355" x2="959.9" y2="332.3"/>
<line id="XMLID_856_" class="st17" x1="959.9" y1="329.4" x2="965.5" y2="303.9"/>
<line id="XMLID_857_" class="st19" x1="1130" y1="216.1" x2="1073.3" y2="162.2"/>
<line id="XMLID_858_" class="st13" x1="1147" y1="250.1" x2="1155.5" y2="272.8"/>
<line id="XMLID_859_" class="st1" x1="945.7" y1="408.8" x2="925.9" y2="394.6"/>
<line id="XMLID_860_" class="st1" x1="1002.4" y1="397.5" x2="982.5" y2="369.1"/>
<line id="XMLID_861_" class="st15" x1="982.5" y1="372" x2="959.9" y2="406"/>
<line id="XMLID_862_" class="st15" x1="982.5" y1="369.1" x2="1013.7" y2="363.5"/>
<line id="XMLID_863_" class="st1" x1="1016.6" y1="403.2" x2="1081.8" y2="380.5"/>
<line id="XMLID_864_" class="st15" x1="1093.1" y1="386.2" x2="1093.1" y2="445.7"/>
<line id="XMLID_865_" class="st19" x1="1030.7" y1="355" x2="1127.1" y2="244.4"/>
<line id="XMLID_866_" class="st20" x1="1081.8" y1="372" x2="1033.6" y2="363.5"/>
<line id="XMLID_867_" class="st1" x1="1331.2" y1="253" x2="1280.2" y2="318.1"/>
<line id="XMLID_868_" class="st20" x1="1260.3" y1="326.7" x2="1203.7" y2="315.3"/>
<line id="XMLID_869_" class="st15" x1="1186.6" y1="338" x2="1198" y2="360.7"/>
<line id="XMLID_870_" class="st15" x1="1274.5" y1="340.8" x2="1283" y2="369.2"/>
<line id="XMLID_871_" class="st15" x1="1195.1" y1="380.5" x2="1175.3" y2="397.5"/>
<line id="XMLID_872_" class="st1" x1="1152.6" y1="400.3" x2="1104.4" y2="380.5"/>
<line id="XMLID_873_" class="st1" x1="1206.5" y1="383.3" x2="1209.3" y2="408.8"/>
<line id="XMLID_874_" class="st15" x1="1178.1" y1="414.5" x2="1200.8" y2="420.2"/>
<line id="XMLID_875_" class="st15" x1="1215" y1="434.4" x2="1212.1" y2="454.2"/>
<line id="XMLID_876_" class="st1" x1="1223.5" y1="471.2" x2="1283" y2="496.7"/>
<line id="XMLID_877_" class="st19" x1="1305.7" y1="502.4" x2="1365.2" y2="533.6"/>
<line id="XMLID_878_" class="st7" x1="682.1" y1="513.7" x2="639.5" y2="508"/>
<line id="XMLID_879_" class="st4" x1="755.8" y1="499.5" x2="710.4" y2="510.8"/>
<line id="XMLID_880_" class="st1" x1="818.1" y1="485.3" x2="775.6" y2="493.8"/>
<line id="XMLID_881_" class="st15" x1="829.5" y1="493.8" x2="840.8" y2="527.9"/>
<line id="XMLID_882_" class="st4" x1="860.6" y1="542" x2="897.5" y2="547.7"/>
<line id="XMLID_883_" class="st19" x1="832.3" y1="544.9" x2="809.6" y2="553.4"/>
<line id="XMLID_884_" class="st15" x1="693.4" y1="525" x2="687.7" y2="567.5"/>
<line id="XMLID_885_" class="st15" x1="764.3" y1="505.2" x2="744.4" y2="547.7"/>
<line id="XMLID_886_" class="st15" x1="679.2" y1="573.2" x2="650.9" y2="570.3"/>
<line id="XMLID_887_" class="st17" x1="906" y1="556.2" x2="911.6" y2="612.9"/>
<line id="XMLID_888_" class="st15" x1="846.5" y1="553.4" x2="846.5" y2="615.7"/>
<line id="XMLID_889_" class="st1" x1="843.6" y1="635.6" x2="835.1" y2="666.8"/>
<line id="XMLID_890_" class="st15" x1="920.1" y1="669.6" x2="855" y2="629.9"/>
<line id="XMLID_891_" class="st1" x1="880.5" y1="714.9" x2="843.6" y2="723.4"/>
<line id="XMLID_892_" class="st1" x1="880.5" y1="714.9" x2="889" y2="760.3"/>
<line id="XMLID_893_" class="st4" x1="880.5" y1="714.9" x2="923" y2="680.9"/>
<line id="XMLID_894_" class="st15" x1="880.5" y1="712.1" x2="840.8" y2="686.6"/>
<circle id="XMLID_895_" class="st1" cx="320.6" cy="682.3" r="7.1"/>
<line id="XMLID_896_" class="st20" x1="313.5" y1="678" x2="251.2" y2="641.2"/>
<circle id="XMLID_897_" class="st1" cx="465.2" cy="719.1" r="7.1"/>
<line id="XMLID_898_" class="st17" x1="458.1" y1="717.7" x2="404.2" y2="723.4"/>
<circle id="XMLID_899_" class="st1" cx="747.2" cy="595.9" r="11.3"/>
<circle id="XMLID_900_" class="st1" cx="782.7" cy="634.1" r="7.1"/>
<circle id="XMLID_901_" class="st1" cx="689.1" cy="625.6" r="7.1"/>
<circle id="XMLID_902_" class="st21" cx="653.7" cy="635.5" r="5.7"/>
<line id="XMLID_903_" class="st1" x1="752.9" y1="604.4" x2="775.6" y2="627.1"/>
<line id="XMLID_904_" class="st20" x1="735.9" y1="601.5" x2="696.2" y2="621.4"/>
<line id="XMLID_905_" class="st15" x1="682" y1="627" x2="653.7" y2="635.5"/>
<line id="XMLID_906_" class="st17" x1="687.7" y1="618.5" x2="687.7" y2="581.7"/>
<line id="XMLID_907_" class="st17" x1="755.7" y1="590.2" x2="789.8" y2="564.7"/>
</svg>
