<?xml version="1.0" encoding="utf-8"?>
<!-- Generator: Adobe Illustrator 19.0.0, SVG Export Plug-In . SVG Version: 6.00 Build 0)  -->
<svg version="1.1" id="Layer_1" xmlns="http://www.w3.org/2000/svg" xmlns:xlink="http://www.w3.org/1999/xlink" x="0px" y="0px"
	 viewBox="0 0 506.8 220.5" style="enable-background:new 0 0 506.8 220.5;" xml:space="preserve">
<style type="text/css">
	.st0{fill:#676868;}
	.st1{fill:#5C95A5;}
</style>
<path class="st0" d="M231.5,134.6c-9.8-10.9-14.7-24-14.7-39.4s4.9-28.6,14.7-39.6c9.9-10.9,21.8-16.3,35.6-16.3
	c10.5,0,19.8,3.1,27.8,9.3c8,6.1,12.8,13.9,14.5,23.3h-7.2c-1.3-7.4-5.3-13.6-12-18.4c-6.6-4.9-14.3-7.3-23.1-7.3
	c-11.9,0-22.1,4.8-30.5,14.3c-8.5,9.7-12.7,21.3-12.7,34.8c0,13.5,4.2,25.1,12.7,34.8c8.4,9.6,18.5,14.3,30.5,14.3
	c10.1,0,18.8-3.9,26-11.6c7.2-7.6,10.7-17,10.7-27.9v-2.7h-36.7v-6.8h42.3v53h-5.6v-21.9c-2.6,7.4-7.3,13.3-14.2,17.7
	c-6.7,4.5-14.2,6.8-22.6,6.8C253.3,150.8,241.5,145.4,231.5,134.6z"/>
<path class="st0" d="M325.9,135.8c-8.7-10-13-23.3-13-39.8c0-17.1,4.3-30.8,13-41.1c8.7-10.3,20.3-15.4,34.8-15.4
	s26.1,5.1,34.8,15.4c8.7,10.3,13,24,13,41.1c0,16.5-4.3,29.8-13,39.8c-8.7,10-20.3,15-34.8,15S334.6,145.9,325.9,135.8z
	 M390.2,130.9c7.4-8.7,11-20.3,11-35c0-15-3.7-27-11-36S373,46.4,360.7,46.4s-22.2,4.5-29.5,13.6s-11,21.1-11,36
	c0,14.6,3.7,26.3,11,35c7.4,8.8,17.2,13.2,29.5,13.2S382.8,139.8,390.2,130.9z"/>
<path class="st0" d="M412.3,150.3v-112h10.4l67.6,102.7V38.4h7.6v112h-10.4L419.8,49.1v101.2H412.3z"/>
<path id="_x35__2_" class="st1" d="M200.7,82.6c-8.2-7.8-18.2-11.8-29.6-11.8c-4.7,0-8.8,0.5-12,1.3c-1.3,0.3-2.4,0.8-3.6,1.3
	l3.3-17.1H205V37.9h-62.1l-12,62h17.5l1-1.1c2.6-3.1,5.9-5.6,9.6-7.2c3.8-1.6,7.9-2.4,12.2-2.4c6.5,0,12,2.1,16.7,6.6
	c4.7,4.4,6.9,9.6,6.9,15.9c0,5.9-2.3,10.8-7.1,14.9c-4.6,4.1-10.1,6.1-16.6,6.1c-6.2,0-11.4-1.5-15.8-4.7c-4.5-3.3-6.7-7.3-6.7-12.3
	v-3.2h-18.4v3.2c0,10.3,4.3,18.9,12.7,25.8c7.8,6.3,17.3,9.5,28.1,9.5c11.4,0,21.3-3.8,29.3-11.2c8.4-7.7,12.7-17.1,12.7-28.1
	C213.1,100.3,209,90.5,200.7,82.6z"/>
<g id="x_2_">
	<g>
		<polygon class="st0" points="9.8,56.8 9.8,65.8 48.9,94.2 55.1,89.8 		"/>
		<polygon class="st0" points="9.8,150.4 66.4,109.5 66.4,100.5 9.8,141.5 		"/>
		<polygon class="st1" points="9.8,38.1 9.8,47.1 9.8,56.8 55.1,89.8 48.9,94.2 9.8,122.5 9.8,131.5 9.8,141.5 66.4,100.5 
			66.4,88.2 66.4,79.3 		"/>
	</g>
	<g>
		<polygon class="st1" points="87.5,94.2 126.4,65.8 126.4,56.8 81.4,89.8 		"/>
		<polygon class="st1" points="69.9,109.5 126.4,150.4 126.4,141.4 69.9,100.5 		"/>
		<polygon class="st0" points="69.9,79.3 69.9,88.2 69.9,100.5 126.4,141.4 126.4,131.5 126.4,122.5 87.5,94.2 81.4,89.8 
			126.4,56.8 126.4,47.1 126.4,38.1 		"/>
	</g>
</g>
</svg>
